 http://s11.postimage.org/b318suboj/mmmmmmmmmmmmmmmmmmmm.png



This Guy's in Love with U Mare! [2012] DVDRip EP


info:

Imdb                             : http://www.imdb.com/title/tt2428544/
Genres                           : Comedy
Director                         : Jose Javier Reyes
Writers                          : Jose Javier Reyes
Audio Language                   : Filipino | Tagalog
Country                          : Philippines



General
Complete name                            : This Guy's in Love with U Mare! [2012] DVDRip EP.avi
Format                                   : AVI
Format/Info                              : Audio Video Interleave
File size                                : 846 MiB
Duration                                 : 1h 41mn
Overall bit rate                         : 1 163 Kbps
Writing application                      : VirtualDubMod


Video
ID                                       : 0
Format                                   : AVC
Format/Info                              : Advanced Video Codec
Format profile                           : High@L3.1
Format settings, CABAC                   : Yes
Format settings, ReFrames                : 3 frames
Codec ID                                 : H264
Duration                                 : 1h 41mn
Bit rate                                 : 961 Kbps
Width                                    : 1 280 pixels
Height                                   : 720 pixels
Display aspect ratio                     : 16:9
Frame rate                               : 25.000 fps
Color space                              : YUV
Chroma subsampling                       : 4:2:0
Bit depth                                : 8 bits
Scan type                                : Progressive
Bits/(Pixel*Frame)                       : 0.042
Stream size                              : 699 MiB (83%)
Writing library                          : x264 core 119 r2106kMod 07efeb4
Encoding settings                        : cabac=1 / ref=3 / deblock=1:0:0

Audio
ID                                       : 1
Format                                   : MPEG Audio
Format version                           : Version 1
Format profile                           : Layer 3
Codec ID                                 : 55
Codec ID/Hint                            : MP3
Duration                                 : 1h 41mn
Bit rate mode                            : Constant
Bit rate                                 : 192 Kbps
Channel(s)                               : 2 channels
Sampling rate                            : 44.1 KHz
Compression mode                         : Lossy
Stream size                              : 140 MiB (17%)
Alignment                                : Split accross interleaves
Interleave, duration                     : 40 ms (1.00 video frame)
Interleave, preload duration             : 500 ms
Writing library                          : LAMELAME_MAJOR_VERSI




Main Cast

   Vice Ganda as Lester
   Toni Gonzaga as Gemma
   Luis Manzano as Mike

Supporting Cast

   DJ Durano as David
   Gladys Reyes
   Karla Estrada
   Ricci Chan
   Lassie Marquez as Ricky
   IC Mendoza as Babushka
   Ricky Rivero as Fanny
   Cecil Paz as Tancing
   Eagle Riggs
   Manuel Chua as Peter
   Buboy Garovillo as Daddy
   Carla Martinez
   Edgar Mortiz
   Tessie Tomas
   Jayson Gainza as Nitoy
   Edward Mendez
   Dang Cruz

Special Participation

   Sam Milby




plot:


The film is about an unlikely love triangle. After Lester (Vice Ganda) catches his boyfriend (Luis Manzano)

proposing marriage to Gemma (Toni Gonzaga), it seems as if his whole world comes crashing down.

He devises a brilliant plan to keep Gemma away from his ex by making her fall for in love with him.

Will Lester emerge victorious and win the heart of his old partner?



ScreenShot:
 
http://s11.postimage.org/ho9dev25f/image.jpg 
http://s11.postimage.org/fxqcddkmb/image.jpg 
http://s11.postimage.org/5cb2f43oj/image.jpg 
http://s11.postimage.org/nt5h5xjmr/image.jpg